<svg width="266" height="266" viewBox="0 0 266 266" fill="none" xmlns="http://www.w3.org/2000/svg">
<g clip-path="url(#clip0)" filter="url(#filter0_d)">
<path d="M224.219 37.7846C199.852 13.4168 167.456 0 133.002 0C98.5443 0 66.1483 13.4168 41.7846 37.7846C17.4168 62.1483 4 94.5443 4 129.002C4 163.46 17.4168 195.856 41.7846 220.219C66.1483 244.583 98.5443 258.004 133.002 258.004C167.46 258.004 199.856 244.587 224.219 220.219C248.583 195.856 262.004 163.46 262.004 129.002C262 94.5443 248.583 62.1483 224.219 37.7846ZM260.767 131.217V132.43H259.554H257.101C256.24 164.305 243.425 194.146 220.787 216.787C198.15 239.429 168.309 252.24 136.43 253.101V255.554V256.767H135.217H130.779H129.566V255.554V253.101C97.6914 252.24 67.8502 239.425 45.2085 216.787C22.5709 194.15 9.75642 164.309 8.89538 132.43H6.44567H5.23294V131.217V126.779V125.566H6.44567H8.89942C9.76046 93.6914 22.575 63.8502 45.2126 41.2126C67.8502 18.575 97.6914 5.76046 129.57 4.89942V2.44567V1.23294H130.783H135.221H136.434V2.44567V4.89942C168.309 5.76046 198.15 18.575 220.791 41.2126C243.429 63.8502 256.244 93.6914 257.105 125.566H259.558H260.771V126.779V131.217H260.767Z" fill="black"/>
<path d="M252.331 126.783C252.322 126.378 252.314 125.974 252.306 125.57C251.449 94.9729 239.132 66.3363 217.4 44.6042C195.668 22.868 167.027 10.5548 136.43 9.69376C136.026 9.68163 135.622 9.67354 135.217 9.6695V4.87922V2.44568H130.779V4.87518V9.66546C130.375 9.67354 129.97 9.68163 129.566 9.68971C98.9689 10.5467 70.3323 22.864 48.6002 44.5961C26.8681 66.3363 14.5549 94.9729 13.6938 125.57C13.6817 125.974 13.6736 126.378 13.6696 126.783H8.87928H6.44574V131.221H8.87524H13.6655C13.6736 131.626 13.6817 132.03 13.6898 132.434C14.5468 163.031 26.8641 191.668 48.5962 213.4C70.3283 235.132 98.9689 247.449 129.562 248.306C129.966 248.318 130.37 248.326 130.775 248.331V253.121V255.55H135.213V253.121V248.331C135.618 248.322 136.022 248.314 136.426 248.306C167.023 247.449 195.66 235.132 217.392 213.4C239.124 191.668 251.441 163.027 252.298 132.434C252.31 132.03 252.318 131.626 252.322 131.221H257.113H259.542V126.783H257.113H252.331ZM251.146 129.002C251.146 129.742 251.134 130.482 251.118 131.221C251.11 131.626 251.102 132.03 251.09 132.434C250.233 162.708 238.045 191.041 216.539 212.543C195.033 234.045 166.7 246.237 136.43 247.094C136.026 247.106 135.622 247.114 135.217 247.122C134.478 247.134 133.738 247.15 132.998 247.15C132.258 247.15 131.519 247.138 130.779 247.122C130.375 247.114 129.97 247.106 129.566 247.094C99.2923 246.237 70.9589 234.049 49.4572 212.543C27.9515 191.037 15.7635 162.704 14.9065 132.434C14.8944 132.03 14.8863 131.626 14.8782 131.221C14.8661 130.482 14.85 129.742 14.85 129.002C14.85 128.262 14.8621 127.522 14.8782 126.783C14.8863 126.378 14.8944 125.974 14.9065 125.57C15.7635 95.3003 27.9515 66.9629 49.4572 45.4612C70.9589 23.9554 99.2963 11.7675 129.566 10.9105C129.97 10.8984 130.375 10.8903 130.779 10.8822C131.519 10.8701 132.258 10.8539 132.998 10.8539C133.738 10.8539 134.478 10.8661 135.217 10.8822C135.622 10.8903 136.026 10.8984 136.43 10.9105C166.7 11.7675 195.037 23.9554 216.539 45.4612C238.045 66.9669 250.233 95.3003 251.09 125.57C251.102 125.974 251.11 126.378 251.118 126.783C251.13 127.518 251.146 128.258 251.146 129.002Z" fill="black"/>
</g>
<defs>
<defs>
  <pattern id="img1" patternUnits="userSpaceOnUse" width="100" height="100">
    <image href="wall.jpg" x="0" y="0" width="100" height="100" />
  </pattern>
</defs>
<filter id="filter0_d" x="0" y="0" width="266" height="266" filterUnits="userSpaceOnUse" color-interpolation-filters="sRGB">
<feFlood flood-opacity="0" result="BackgroundImageFix"/>
<feColorMatrix in="SourceAlpha" type="matrix" values="0 0 0 0 0 0 0 0 0 0 0 0 0 0 0 0 0 0 127 0"/>
<feOffset dy="4"/>
<feGaussianBlur stdDeviation="2"/>
<feColorMatrix type="matrix" values="0 0 0 0 0 0 0 0 0 0 0 0 0 0 0 0 0 0 0.25 0"/>
<feBlend mode="normal" in2="BackgroundImageFix" result="effect1_dropShadow"/>
<feBlend mode="normal" in="SourceGraphic" in2="effect1_dropShadow" result="shape"/>
</filter>
<clipPath id="clip0">
<rect width="258" height="258" fill="white" transform="translate(4)"/>
</clipPath>
</defs>
</svg>
