<svg width="11" height="10" viewBox="0 0 11 10" fill="none" xmlns="http://www.w3.org/2000/svg">
<path d="M10.7708 0.416748H0.562419C0.505127 0.416748 0.458252 0.463623 0.458252 0.520915V1.35425C0.458252 1.41154 0.505127 1.45841 0.562419 1.45841H10.7708C10.828 1.45841 10.8749 1.41154 10.8749 1.35425V0.520915C10.8749 0.463623 10.828 0.416748 10.7708 0.416748ZM10.7708 8.54175H0.562419C0.505127 8.54175 0.458252 8.58862 0.458252 8.64592V9.47925C0.458252 9.53654 0.505127 9.58342 0.562419 9.58342H10.7708C10.828 9.58342 10.8749 9.53654 10.8749 9.47925V8.64592C10.8749 8.58862 10.828 8.54175 10.7708 8.54175ZM10.7708 4.47925H0.562419C0.505127 4.47925 0.458252 4.52612 0.458252 4.58342V5.41675C0.458252 5.47404 0.505127 5.52092 0.562419 5.52092H10.7708C10.828 5.52092 10.8749 5.47404 10.8749 5.41675V4.58342C10.8749 4.52612 10.828 4.47925 10.7708 4.47925Z" fill="black"/>
</svg>
